<svg xmlns="http://www.w3.org/2000/svg" width="331.717" height="200.853"
    viewBox="0 0 331.717 200.853">
    <g id="Group_1" data-name="Group 1" transform="translate(1732.428 -247.164)">
        <g id="Layer_2" data-name="Layer 2" transform="translate(-1732.428 247.164)">
            <path id="Layer_1" data-name="Layer 1"
                d="M310.144,200.853H21.545A21.573,21.573,0,0,1,0,179.28V21.573A21.573,21.573,0,0,1,21.545,0l289.23,54.536a26.6,26.6,0,0,1,14.492,7.877c6.34,7.081,6.45,16.468,6.45,20.42V179.28a21.573,21.573,0,0,1-21.573,21.573Z"
                fill="#fec52a" />
        </g>
        <g id="Layer_2-2" data-name="Layer 2" transform="translate(-1497.959 272.533)">
            <g id="Layer_1-2" data-name="Layer 1">
                <path id="Path_1" data-name="Path 1"
                    d="M66.017,51.575,11.666,40.043c-1.949-.28-6.887-1.268-9.61-5.339C1.495,33.889,0,32.3,0,26.548v-13.2A13.348,13.348,0,0,1,13.348,0H66.07A13.348,13.348,0,0,1,79.418,13.348V38.281a13.348,13.348,0,0,1-13.4,13.294Z"
                    fill="#ffd45f" />
            </g>
        </g>
    </g>
</svg>
